<svg width="20" height="20" viewBox="0 0 20 20" fill="none" xmlns="http://www.w3.org/2000/svg">
<g clip-path="url(#clip0_133_5155)">
<path d="M10 0.833313V19.1666" stroke="#3C3C3C" stroke-width="2" stroke-linecap="round" stroke-linejoin="round"/>
<path d="M14.1667 4.16669H7.91667C7.14312 4.16669 6.40125 4.47398 5.85427 5.02096C5.30729 5.56794 5 6.30981 5 7.08335C5 7.8569 5.30729 8.59877 5.85427 9.14575C6.40125 9.69273 7.14312 10 7.91667 10H12.0833C12.8569 10 13.5987 10.3073 14.1457 10.8543C14.6927 11.4013 15 12.1431 15 12.9167C15 13.6902 14.6927 14.4321 14.1457 14.9791C13.5987 15.5261 12.8569 15.8334 12.0833 15.8334H5" stroke="#3C3C3C" stroke-width="2" stroke-linecap="round" stroke-linejoin="round"/>
</g>
<defs>
<clipPath id="clip0_133_5155">
<rect width="20" height="20" fill="white"/>
</clipPath>
</defs>
</svg>
