<svg width="96" height="96" viewBox="0 0 96 96" fill="none" xmlns="http://www.w3.org/2000/svg">
<rect width="96" height="96" rx="12" fill="#E2D4F0"/>
<path d="M59 55C59 55.5304 58.7893 56.0391 58.4142 56.4142C58.0391 56.7893 57.5304 57 57 57H39C38.4696 57 37.9609 56.7893 37.5858 56.4142C37.2107 56.0391 37 55.5304 37 55V44C37 43.4696 37.2107 42.9609 37.5858 42.5858C37.9609 42.2107 38.4696 42 39 42H43L45 39H51L53 42H57C57.5304 42 58.0391 42.2107 58.4142 42.5858C58.7893 42.9609 59 43.4696 59 44V55Z" stroke="#7126B5" stroke-width="2" stroke-linecap="round" stroke-linejoin="round"/>
<path d="M48 53C50.2091 53 52 51.2091 52 49C52 46.7909 50.2091 45 48 45C45.7909 45 44 46.7909 44 49C44 51.2091 45.7909 53 48 53Z" stroke="#7126B5" stroke-width="2" stroke-linecap="round" stroke-linejoin="round"/>
</svg>
