<svg width="16" height="16" viewBox="0 0 16 16" fill="none" xmlns="http://www.w3.org/2000/svg">
<path d="M1.33337 14.6666L4.95317 13.5125C5.92539 14.0465 7.01914 14.3221 8.12157 14.3221C11.7327 14.3221 14.6667 11.4108 14.6667 7.82771C14.6667 4.2446 11.7327 1.33331 8.12157 1.33331C4.51046 1.33331 1.57643 4.2446 1.57643 7.82771C1.57643 9.00773 1.89761 10.1705 2.51393 11.1783L1.33337 14.6666ZM8.12157 13C7.06254 13 6.21879 12.5771 5.33337 12L3.33337 12.6666L4.00004 11C3.32296 10.0784 3.00004 8.96814 3.00004 7.83119C3.00004 4.851 5.1181 2.66665 8.12157 2.66665C11.125 2.66665 13.3334 4.84752 13.3334 7.82771C13.3334 10.8079 11.125 13 8.12157 13ZM9.87504 11.0835C10.3698 11.0835 11.1771 10.7735 11.3768 10.2911C11.4549 10.093 11.5243 9.85183 11.5243 9.6365C11.5243 9.60205 11.5243 9.55037 11.507 9.5073C11.4462 9.40394 10.0313 8.67181 9.88372 8.67181C9.79344 8.67181 9.66983 8.80549 9.53733 8.96591L9.33497 9.21321C9.19969 9.37362 9.06775 9.5073 8.96358 9.5073C8.89414 9.5073 8.83337 9.48146 8.77261 9.44701C8.2865 9.20584 7.86115 8.95605 7.46185 8.57707C7.13199 8.26699 6.7674 7.80188 6.57643 7.39705C6.55039 7.35399 6.53303 7.31092 6.53303 7.26785C6.53303 7.06975 7.13199 6.69938 7.13199 6.37207C7.13199 6.28594 6.68928 5.11454 6.62851 4.96811C6.54171 4.74417 6.4983 4.67526 6.26393 4.67526C6.15108 4.67526 6.04692 4.64942 5.94275 4.64942C5.76046 4.64942 5.62157 4.71833 5.49136 4.83891C5.07469 5.22651 4.86636 5.63133 4.849 6.19981V6.26871C4.84032 6.86303 5.13546 7.45734 5.46532 7.93969C6.21185 9.03357 6.98442 9.98964 8.22574 10.5495C8.599 10.7218 9.45837 11.0835 9.87504 11.0835Z" fill="white"/>
</svg>
