<svg width="172" height="121" viewBox="0 0 172 121" fill="none" xmlns="http://www.w3.org/2000/svg">
<path d="M140.209 80.0965C140.402 79.8467 140.537 79.5577 140.606 79.2499C140.674 78.9422 140.675 78.6231 140.607 78.3152C140.539 78.0072 140.404 77.718 140.212 77.4677C140.02 77.2175 139.776 77.0123 139.496 76.8668L139.922 71.9559L137.001 70.9691L136.496 77.9125C136.282 78.3986 136.255 78.9461 136.418 79.4512C136.582 79.9563 136.925 80.3839 137.382 80.6531C137.84 80.9223 138.38 81.0144 138.901 80.9118C139.422 80.8093 139.887 80.5193 140.209 80.0967L140.209 80.0965Z" fill="#D4C2A8"/>
<path d="M154.787 118.277H152.158L150.907 108.132H154.789L154.787 118.277Z" fill="#D4C2A8"/>
<path d="M150.279 117.525H155.351V120.718H147.085C147.085 119.871 147.422 119.059 148.021 118.46C148.62 117.861 149.432 117.525 150.279 117.525Z" fill="#4B1979"/>
<path d="M148.818 111.545L146.264 112.173L142.628 102.621L146.397 101.695L148.818 111.545Z" fill="#D4C2A8"/>
<path d="M144.296 111.801L149.221 110.589L149.985 113.689L141.958 115.665C141.756 114.842 141.888 113.973 142.327 113.249C142.765 112.524 143.473 112.003 144.296 111.801Z" fill="#4B1979"/>
<path d="M151.709 115.042C151.469 115.043 151.237 114.954 151.059 114.793C150.88 114.633 150.768 114.412 150.743 114.173L147.717 85.9815L145.084 94.6024L148.814 108.067C148.878 108.298 148.855 108.544 148.748 108.759C148.642 108.974 148.46 109.142 148.238 109.23L145.272 110.416C145.15 110.465 145.019 110.489 144.888 110.486C144.756 110.483 144.627 110.453 144.507 110.398C144.388 110.344 144.28 110.266 144.192 110.168C144.103 110.071 144.035 109.957 143.992 109.833L139.421 96.719C138.92 95.2871 138.699 93.7726 138.768 92.2574L139.406 78.1048L156.211 78.8163L155.949 113.832C155.945 114.075 155.851 114.309 155.685 114.487C155.519 114.665 155.292 114.775 155.049 114.794L151.785 115.04C151.76 115.041 151.734 115.042 151.709 115.042Z" fill="#4B1979"/>
<path d="M148.926 46.7838C152.047 46.7838 154.577 44.2542 154.577 41.1338C154.577 38.0134 152.047 35.4838 148.926 35.4838C145.806 35.4838 143.276 38.0134 143.276 41.1338C143.276 44.2542 145.806 46.7838 148.926 46.7838Z" fill="#D4C2A8"/>
<path d="M153.082 79.7369C151.594 79.7369 149.746 79.6153 147.833 79.4894C145.219 79.3174 142.517 79.1395 140.499 79.2564C140.227 79.2834 139.952 79.2403 139.701 79.131C139.45 79.0217 139.231 78.8499 139.066 78.6321C136.986 75.9696 140.193 65.5871 140.331 65.1466L142.941 53.537L143.053 53.5623L142.941 53.537C143.516 50.9836 145.35 49.1 147.729 48.6215C149.956 48.1743 152.11 49.0657 153.492 51.0082C153.565 51.1112 153.638 51.217 153.711 51.3254C158.21 57.9866 155.665 74.5362 155.495 75.6034C155.733 75.888 157.017 77.4971 156.664 78.6148C156.521 79.0696 156.13 79.3795 155.504 79.535C154.707 79.6929 153.894 79.7605 153.081 79.7363L153.082 79.7369Z" fill="#A06ECE"/>
<path d="M140.59 79.742C140.078 79.742 139.388 79.5531 138.457 79.1669C138.057 79.0003 136.84 78.494 138.318 65.5781C139.044 59.2336 140.084 52.9334 140.094 52.8706L140.104 52.8098L140.16 52.7845C140.187 52.7723 142.843 51.555 143.305 49.9905C143.321 49.9363 143.339 49.8838 143.359 49.8329C143.486 49.4851 143.743 49.1999 144.075 49.0367C144.408 48.8735 144.79 48.8449 145.143 48.9569C145.516 49.046 145.841 49.2736 146.052 49.5935C146.263 49.9134 146.345 50.3016 146.28 50.6794C146.119 51.6999 145.81 52.6913 145.362 53.6221C144.112 56.2008 143.265 63.0371 143.257 63.1059C143.209 63.6897 142.075 77.5228 141.856 78.5725C141.78 78.9392 141.639 79.3877 141.227 79.6053C141.03 79.7028 140.811 79.7503 140.591 79.7434L140.59 79.742Z" fill="#4B1979"/>
<path d="M146.763 79.212C146.66 79.212 146.56 79.1776 146.478 79.1142C144.816 77.8511 147.506 62.5397 149.101 57.2569C149.42 56.1987 149.705 55.2931 149.947 54.5641C150.387 53.256 150.694 51.9068 150.864 50.537C150.952 49.7949 151.143 49.3712 151.448 49.2412C151.66 49.1508 151.908 49.2122 152.189 49.4236C153.663 49.351 155.095 49.9527 156.422 50.6155L157.616 51.2113L158.957 74.9395C158.919 76.4538 155.933 77.5228 154.632 77.5911C152.54 77.7008 148.786 78.0413 147.131 79.0884C147.023 79.1638 146.895 79.2066 146.763 79.2117L146.763 79.212Z" fill="#4B1979"/>
<path d="M139.296 74.7598C139.276 74.7598 139.257 74.7598 139.237 74.758L136.529 74.5914C136.394 74.5832 136.263 74.547 136.143 74.4851C136.023 74.4232 135.917 74.337 135.832 74.232C135.747 74.127 135.685 74.0055 135.65 73.8752C135.614 73.7448 135.606 73.6086 135.627 73.4751L136.852 65.3596L139.158 53.9727C139.215 53.6922 139.33 53.4268 139.496 53.1936C139.662 52.9605 139.875 52.7648 140.121 52.6193C140.368 52.4738 140.642 52.3817 140.926 52.349C141.211 52.3162 141.499 52.3436 141.772 52.4294C142.239 52.5783 142.637 52.8892 142.895 53.3059C143.152 53.7227 143.252 54.2178 143.177 54.7019L141.345 66.1118L140.26 73.9209C140.227 74.1531 140.111 74.3656 139.934 74.5196C139.757 74.6737 139.531 74.7589 139.296 74.7598H139.296Z" fill="#4B1979"/>
<path d="M148.545 65.8769C148.71 65.6082 148.932 65.379 149.195 65.2055C149.459 65.0319 149.757 64.9181 150.069 64.8722C150.381 64.8263 150.699 64.8494 151.001 64.9398C151.303 65.0302 151.582 65.1857 151.818 65.3954L156.257 63.2515L158.218 65.631L151.906 68.5706C151.528 68.9429 151.026 69.1633 150.495 69.1902C149.965 69.2171 149.443 69.0486 149.029 68.7166C148.615 68.3845 148.337 67.9121 148.247 67.3887C148.158 66.8653 148.264 66.3274 148.545 65.8769Z" fill="#D4C2A8"/>
<path d="M154.712 68.1793C154.493 68.1793 154.281 68.1058 154.109 67.9705C153.937 67.8353 153.816 67.6462 153.765 67.4338L153.121 64.7538C153.072 64.5523 153.088 64.3403 153.169 64.149C153.249 63.9577 153.389 63.7973 153.567 63.6913L157.455 61.3642L155.468 54.0872C155.296 53.464 155.374 52.7983 155.687 52.2326C156 51.6668 156.522 51.246 157.141 51.0601C157.76 50.8743 158.428 50.9382 159 51.2382C159.573 51.5382 160.006 52.0505 160.205 52.6653L162.4 59.3652C162.669 60.1819 162.672 61.0633 162.406 61.8813C162.14 62.6993 161.621 63.4112 160.923 63.9137L155.281 67.9946C155.116 68.1147 154.916 68.1793 154.712 68.1793Z" fill="#4B1979"/>
<path d="M112.702 0H3.83746C2.82007 0.00121756 1.84471 0.405868 1.12531 1.12519C0.405909 1.84451 0.0012177 2.81976 0 3.83703V15.5506C0.0012177 16.5678 0.405909 17.5431 1.12531 18.2624C1.84471 18.9817 2.82007 19.3864 3.83746 19.3876H112.702C113.719 19.3864 114.695 18.9817 115.414 18.2624C116.134 17.5431 116.538 16.5678 116.54 15.5506V3.83703C116.538 2.81976 116.134 1.84451 115.414 1.12519C114.695 0.405868 113.719 0.00121756 112.702 0ZM116.136 15.5506C116.134 16.4607 115.772 17.3331 115.128 17.9767C114.485 18.6202 113.612 18.9823 112.702 18.9837H3.83746C2.92725 18.9823 2.05472 18.6202 1.41111 17.9767C0.767498 17.3331 0.405329 16.4607 0.403991 15.5506V3.83703C0.405329 2.92693 0.767498 2.05449 1.41111 1.41095C2.05472 0.767413 2.92725 0.405285 3.83746 0.403946H112.702C113.612 0.405285 114.485 0.767413 115.128 1.41095C115.772 2.05449 116.134 2.92693 116.136 3.83703V15.5506Z" fill="#3F3D56"/>
<path d="M112.702 47.055H3.83746C2.82007 47.0538 1.84471 46.6491 1.12531 45.9298C0.405909 45.2105 0.0012177 44.2352 0 43.2179V31.5046C0.0012177 30.4874 0.405909 29.5121 1.12531 28.7928C1.84471 28.0735 2.82007 27.6688 3.83746 27.6676H112.702C113.719 27.6688 114.695 28.0735 115.414 28.7928C116.134 29.5121 116.538 30.4874 116.54 31.5046V43.2179C116.538 44.2352 116.134 45.2105 115.414 45.9298C114.695 46.6491 113.719 47.0538 112.702 47.055ZM3.83746 28.0716C2.92716 28.0726 2.05445 28.4346 1.41077 29.0782C0.767099 29.7218 0.405026 30.5944 0.403991 31.5046V43.2179C0.404843 44.1283 0.766833 45.0011 1.41053 45.6448C2.05422 46.2886 2.92704 46.6507 3.83746 46.6517H112.702C113.612 46.6507 114.485 46.2887 115.129 45.6451C115.773 45.0015 116.135 44.1289 116.136 43.2186V31.5046C116.135 30.5944 115.773 29.7218 115.129 29.0782C114.485 28.4346 113.613 28.0726 112.702 28.0716H3.83746Z" fill="#CCCCCC"/>
<path d="M112.702 74.7226H3.83746C2.82007 74.7214 1.84471 74.3167 1.12531 73.5974C0.405909 72.8781 0.0012177 71.9028 0 70.8855V59.1722C0.0012177 58.155 0.405909 57.1797 1.12531 56.4604C1.84471 55.7411 2.82007 55.3364 3.83746 55.3352H112.702C113.719 55.3364 114.695 55.7411 115.414 56.4604C116.134 57.1797 116.538 58.155 116.54 59.1722V70.8855C116.538 71.9028 116.134 72.8781 115.414 73.5974C114.695 74.3167 113.719 74.7214 112.702 74.7226ZM3.83746 55.7382C2.92716 55.7393 2.05445 56.1013 1.41077 56.7449C0.767099 57.3885 0.405026 58.2611 0.403991 59.1713V70.8846C0.404965 71.7949 0.767011 72.6675 1.41069 73.3112C2.05438 73.9548 2.92712 74.3169 3.83746 74.3179H112.702C113.612 74.317 114.485 73.955 115.129 73.3113C115.773 72.6677 116.135 71.7951 116.136 70.8849V59.1722C116.135 58.2618 115.773 57.389 115.129 56.7451C114.485 56.1013 113.613 55.7392 112.702 55.7382H3.83746Z" fill="#CCCCCC"/>
<path d="M18.5474 16.3722C17.2263 16.3722 15.935 15.9806 14.8366 15.2467C13.7382 14.5129 12.8821 13.4699 12.3766 12.2495C11.8711 11.0292 11.7388 9.68638 11.9965 8.39088C12.2542 7.09539 12.8904 5.9054 13.8245 4.9714C14.7586 4.0374 15.9487 3.40134 17.2443 3.14365C18.54 2.88596 19.8829 3.01821 21.1034 3.52369C22.3239 4.02917 23.367 4.88516 24.1009 5.98343C24.8348 7.0817 25.2266 8.37291 25.2266 9.69379C25.2266 11.465 24.5229 13.1637 23.2703 14.4162C22.0177 15.6686 20.3188 16.3722 18.5474 16.3722Z" fill="#A06ECE"/>
<path d="M102.841 15.1464H31.5441C31.1155 15.1464 30.7045 14.9762 30.4015 14.6732C30.0985 14.3702 29.9282 13.9592 29.9282 13.5307C29.9282 13.1022 30.0985 12.6913 30.4015 12.3883C30.7045 12.0853 31.1155 11.915 31.5441 11.915H102.841C103.269 11.915 103.68 12.0853 103.983 12.3883C104.286 12.6913 104.457 13.1022 104.457 13.5307C104.457 13.9592 104.286 14.3702 103.983 14.6732C103.68 14.9762 103.269 15.1464 102.841 15.1464Z" fill="#CCCCCC"/>
<path d="M79.6123 8.27999H31.5424C31.1138 8.27999 30.7028 8.10976 30.3998 7.80677C30.0968 7.50377 29.9265 7.09282 29.9265 6.66432C29.9265 6.23581 30.0968 5.82486 30.3998 5.52186C30.7028 5.21887 31.1138 5.04865 31.5424 5.04865H79.6123C80.0408 5.04865 80.4518 5.21887 80.7548 5.52186C81.0579 5.82486 81.2281 6.23581 81.2281 6.66432C81.2281 7.09282 81.0579 7.50377 80.7548 7.80677C80.4518 8.10976 80.0408 8.27999 79.6123 8.27999Z" fill="#CCCCCC"/>
<path d="M18.5474 44.0396C17.2263 44.0396 15.935 43.6479 14.8366 42.9141C13.7382 42.1802 12.8821 41.1372 12.3766 39.9169C11.8711 38.6966 11.7388 37.3537 11.9965 36.0582C12.2542 34.7627 12.8904 33.5728 13.8245 32.6388C14.7586 31.7048 15.9487 31.0687 17.2443 30.811C18.54 30.5533 19.8829 30.6856 21.1034 31.1911C22.3239 31.6965 23.367 32.5525 24.1009 33.6508C24.8348 34.7491 25.2266 36.0403 25.2266 37.3611C25.2266 39.1324 24.5229 40.8311 23.2703 42.0835C22.0177 43.336 20.3188 44.0396 18.5474 44.0396Z" fill="#E6E6E6"/>
<path d="M102.841 42.814H31.5441C31.1155 42.814 30.7045 42.6438 30.4015 42.3408C30.0985 42.0378 29.9282 41.6268 29.9282 41.1983C29.9282 40.7698 30.0985 40.3589 30.4015 40.0559C30.7045 39.7529 31.1155 39.5826 31.5441 39.5826H102.841C103.269 39.5826 103.68 39.7529 103.983 40.0559C104.286 40.3589 104.457 40.7698 104.457 41.1983C104.457 41.6268 104.286 42.0378 103.983 42.3408C103.68 42.6438 103.269 42.814 102.841 42.814Z" fill="#E6E6E6"/>
<path d="M79.6123 35.9476H31.5424C31.1138 35.9476 30.7028 35.7774 30.3998 35.4744C30.0968 35.1714 29.9265 34.7604 29.9265 34.3319C29.9265 33.9034 30.0968 33.4925 30.3998 33.1895C30.7028 32.8865 31.1138 32.7162 31.5424 32.7162H79.6123C80.0408 32.7162 80.4518 32.8865 80.7548 33.1895C81.0579 33.4925 81.2281 33.9034 81.2281 34.3319C81.2281 34.7604 81.0579 35.1714 80.7548 35.4744C80.4518 35.7774 80.0408 35.9476 79.6123 35.9476Z" fill="#E6E6E6"/>
<path d="M18.5474 71.7072C17.2263 71.7072 15.935 71.3155 14.8366 70.5817C13.7382 69.8479 12.8821 68.8048 12.3766 67.5845C11.8711 66.3642 11.7388 65.0213 11.9965 63.7258C12.2542 62.4303 12.8904 61.2404 13.8245 60.3064C14.7586 59.3724 15.9487 58.7363 17.2443 58.4786C18.54 58.2209 19.8829 58.3532 21.1034 58.8587C22.3239 59.3641 23.367 60.2201 24.1009 61.3184C24.8348 62.4167 25.2266 63.7079 25.2266 65.0288C25.2266 66.8 24.5229 68.4987 23.2703 69.7511C22.0177 71.0036 20.3188 71.7072 18.5474 71.7072Z" fill="#E6E6E6"/>
<path d="M102.841 70.4816H31.5441C31.1155 70.4816 30.7045 70.3114 30.4015 70.0084C30.0985 69.7054 29.9282 69.2944 29.9282 68.8659C29.9282 68.4374 30.0985 68.0265 30.4015 67.7235C30.7045 67.4205 31.1155 67.2502 31.5441 67.2502H102.841C103.269 67.2502 103.68 67.4205 103.983 67.7235C104.286 68.0265 104.457 68.4374 104.457 68.8659C104.457 69.2944 104.286 69.7054 103.983 70.0084C103.68 70.3114 103.269 70.4816 102.841 70.4816Z" fill="#E6E6E6"/>
<path d="M79.6123 63.6152H31.5424C31.1138 63.6152 30.7028 63.445 30.3998 63.142C30.0968 62.839 29.9265 62.428 29.9265 61.9995C29.9265 61.571 30.0968 61.1601 30.3998 60.8571C30.7028 60.5541 31.1138 60.3839 31.5424 60.3839H79.6123C80.0408 60.3839 80.4518 60.5541 80.7548 60.8571C81.0579 61.1601 81.2281 61.571 81.2281 61.9995C81.2281 62.428 81.0579 62.839 80.7548 63.142C80.4518 63.445 80.0408 63.6152 79.6123 63.6152Z" fill="#E6E6E6"/>
<path d="M18.2065 12.0429C18.0406 12.0433 17.8791 11.9897 17.7464 11.8902L17.7381 11.884L16.0069 10.5599C15.9267 10.4984 15.8594 10.4218 15.8088 10.3343C15.7583 10.2468 15.7254 10.1503 15.7122 10.0501C15.699 9.94998 15.7056 9.8482 15.7317 9.75061C15.7578 9.65302 15.8029 9.56152 15.8643 9.48135C15.9258 9.40117 16.0025 9.33389 16.0899 9.28334C16.1774 9.23278 16.274 9.19995 16.3741 9.18672C16.4743 9.17349 16.5761 9.18011 16.6737 9.20621C16.7713 9.23231 16.8628 9.27738 16.943 9.33884L18.0643 10.1987L20.714 6.74217C20.8381 6.58038 21.0213 6.47449 21.2235 6.44779C21.4257 6.42109 21.6302 6.47575 21.792 6.59978L21.7757 6.62278L21.7925 6.59978C21.9541 6.72405 22.0599 6.90735 22.0865 7.10948C22.1132 7.3116 22.0586 7.51604 21.9347 7.67796L18.818 11.7418C18.7458 11.8353 18.653 11.9109 18.5469 11.9627C18.4408 12.0146 18.3242 12.0413 18.206 12.0409L18.2065 12.0429Z" fill="white"/>
<path d="M171.77 121H126.217C126.156 121 126.098 120.976 126.055 120.933C126.012 120.889 125.987 120.831 125.987 120.77C125.987 120.709 126.012 120.65 126.055 120.607C126.098 120.564 126.156 120.54 126.217 120.54H171.77C171.831 120.54 171.889 120.564 171.933 120.607C171.976 120.65 172 120.709 172 120.77C172 120.831 171.976 120.889 171.933 120.933C171.889 120.976 171.831 121 171.77 121Z" fill="#CCCCCC"/>
<path d="M151.004 42.6398C151.004 42.6398 150.316 38.8381 148.752 39.2923C147.187 39.7466 143.16 40.2113 143.152 38.4209C143.145 36.6305 146.943 35.048 149.182 35.2622C151.421 35.4764 155.229 36.1317 155.019 39.4895C154.851 41.6043 154.198 43.6519 153.109 45.4728L151.004 42.6398Z" fill="#4B1979"/>
</svg>
